# xmcd
# Track frame offsets:
# 150
# 12885
# 28867
# 44200
# 68347
# 93902
# 101297
# 120845
# 136812
# 151502
# 175697
#
# Disc length: 2610 seconds
# Revision: 2
# Processed by: cddbd v1.5PL3 Copyright (c) Steve Scherf et al.
# Submitted via: VisiTrax 2.9.9.202 - For more info visit www.synapsa.com
#
DISCID=750a300b
DTITLE=El Fish - Blue Coffee
DYEAR=1996
DGENRE=Blues
TTITLE0=Swing Thing
TTITLE1=Too Late
TTITLE2=Copydog
TTITLE3=Octave Jive
TTITLE4=Your Funeral and my Trial
TTITLE5=Phil's Swing
TTITLE6=Hikin' Blues
TTITLE7=Blue Coffee
TTITLE8=Hypin' Woman
TTITLE9=Lookin' for You
TTITLE10=Sam Cigar
EXTD=YEAR:  1996  ID3G:   0
EXTT0=
EXTT1=
EXTT2=
EXTT3=
EXTT4=
EXTT5=
EXTT6=
EXTT7=
EXTT8=
EXTT9=
EXTT10=
PLAYORDER=
